<?xml version="1.0" encoding="utf-8"?>
<!-- Generator: Adobe Illustrator 19.2.1, SVG Export Plug-In . SVG Version: 6.00 Build 0)  -->
<svg version="1.1" id="Слой_1" xmlns="http://www.w3.org/2000/svg" xmlns:xlink="http://www.w3.org/1999/xlink" x="0px" y="0px"
	 viewBox="0 0 1368 1260" style="enable-background:new 0 0 1368 1260;" xml:space="preserve">
<style type="text/css">
	.st0{fill:none;stroke:#E50C7E;stroke-width:0.2835;}
</style>
<path id="XMLID_1_" class="st0" d="M72.7,778.5c0,0.8,0.7,1.4,1.5,1.4l2.6,0l148.9-3.9l7.4-0.1l0.6,0l147-2.7l35.4-0.4l0.6,0
	l119.1-1.3l63.3-0.2l0.6,0l91.2-0.4l91.2,0.3l0.6,0l63.3,0.2l119.1,1.3l0.6,0l35.4,0.4l147,2.7l0.6,0l7.5,0.1l147.7,3.9l3.1,0.1
	c0,0,0.9,0,1,0c0.6-0.1,1.1-0.7,1.1-1.3l11-367.7c0-0.8-0.6-1.4-1.3-1.4c0,0-1.7,0-1.7,0l-152.7-4l-15.7-0.3l-0.6,0l-141.5-2.7
	l-40.9-0.4l-0.6,0l-116.3-1.3l-66.1-0.3l-0.6,0l-91.2-0.3l-91.2,0.3l-0.6,0l-66,0.3L416.7,402l-0.6,0l-40.9,0.4l-141.5,2.7l-0.6,0
	l-15.7,0.3l-153.1,4l-1.1,0c-0.8,0-1.4,0.7-1.4,1.5L72.7,778.5z"/>
</svg>
