<?xml version="1.0" encoding="utf-8"?>
<!-- Generator: Adobe Illustrator 19.2.1, SVG Export Plug-In . SVG Version: 6.00 Build 0)  -->
<svg version="1.1" xmlns="http://www.w3.org/2000/svg" xmlns:xlink="http://www.w3.org/1999/xlink" x="0px" y="0px"
	 viewBox="0 0 1116.9 1260" style="enable-background:new 0 0 1116.9 1260;" xml:space="preserve">
<style type="text/css">
	.st0{fill:none;stroke:#E50C7E;stroke-width:0.2835;}
	.st1{fill:none;stroke:#009FE3;stroke-width:0.2835;}
</style>
<g id="layout">
	<path id="XMLID_3_" class="st0" d="M302.7,1480.1c0.6,0.5,1.5,0.4,2-0.2l1.7-2l93.2-116.2l4.7-5.8l0.4-0.4l92.9-114l22.6-27.3
		l0.4-0.4l76-91.7l40.7-48.5l0.4-0.4l58.7-69.8l59.2-69.4l0.4-0.4l41.1-48.2l78-90.1l0.4-0.4l23.2-26.8l97.1-110.4l0.4-0.4l5-5.6
		l98.4-110.2l2.1-2.3c0,0,0.6-0.7,0.6-0.8c0.3-0.6,0.2-1.3-0.3-1.7l-273.5-246c-0.6-0.5-1.4-0.5-2,0.1c0,0-1.1,1.3-1.1,1.3
		L723.6,405.9l-10.4,11.8l-0.4,0.4l-93.5,106.3l-26.8,30.9l-0.4,0.4l-76.1,88L473.1,694l-0.4,0.4l-59.2,69.4l-58.7,69.8l-0.4,0.4
		L312,884.6l-74.3,89.6l-0.4,0.4l-26.1,31.5l-89.4,109.7l-0.4,0.4l-9.9,12.2L15.6,1248l-0.7,0.9c-0.5,0.6-0.4,1.5,0.2,2
		L302.7,1480.1z"/>
	<path id="XMLID_2_" class="st0" d="M302.7,850.1c0.6,0.5,1.5,0.4,2-0.2l1.7-2l93.2-116.2l4.7-5.8l0.4-0.4l92.9-114l22.6-27.3
		l0.4-0.4l76-91.7l40.7-48.5l0.4-0.4l58.7-69.8l59.2-69.4l0.4-0.4l41.1-48.2l78-90.1l0.4-0.4l23.2-26.8l97.1-110.4l0.4-0.4l5-5.6
		l98.4-110.2l2.1-2.3c0,0,0.6-0.7,0.6-0.8c0.3-0.6,0.2-1.3-0.3-1.7l-273.5-246c-0.6-0.5-1.4-0.5-2,0.1c0,0-1.1,1.3-1.1,1.3
		L723.6-224.1l-10.4,11.8l-0.4,0.4l-93.5,106.3l-26.8,30.9l-0.4,0.4l-76.1,88L473.1,64l-0.4,0.4l-59.2,69.4l-58.7,69.8l-0.4,0.4
		L312,254.6l-74.3,89.6l-0.4,0.4l-26.1,31.5l-89.4,109.7l-0.4,0.4l-9.9,12.2L15.6,618l-0.7,0.9c-0.5,0.6-0.4,1.5,0.2,2L302.7,850.1z
		"/>
</g>
<g id="area">
	<path class="st1" d="M1111.5-104.3L839.2-349.1c-3-2.7-6.8-4.1-10.8-4.1c-4.6,0-9,2-12.1,5.4l-0.1,0.1l-0.1,0.1l-0.6,0.7
		L316.4,228.7l-1.4,1.7c-3.1,3.8-7.6,6-12.5,6c-3.6,0-7.2-1.2-10.1-3.5L0,0v1260l292.4,232.8c2.9,2.3,6.4,3.5,10.1,3.5c0,0,0,0,0,0
		c4.9,0,9.5-2.2,12.5-6l1.3-1.6l0,0l0,0L815.7,913l0.6-0.7l0.1-0.1l0.1-0.1c3.1-3.4,7.4-5.4,12-5.4c4,0,7.8,1.5,10.8,4.1
		l272.2,244.9c1.3,1.2,5.4,4.7,5.4,4.7v-616V-99.7C1116.9-99.7,1113-102.9,1111.5-104.3z"/>
</g>
</svg>
