<?xml version="1.0" encoding="utf-8"?>
<!-- Generator: Adobe Illustrator 19.2.1, SVG Export Plug-In . SVG Version: 6.00 Build 0)  -->
<svg version="1.1" id="Слой_1" xmlns="http://www.w3.org/2000/svg" xmlns:xlink="http://www.w3.org/1999/xlink" x="0px" y="0px"
	 viewBox="0 0 722.8 622.5" style="enable-background:new 0 0 722.8 622.5;" xml:space="preserve">
<style type="text/css">
	.st0{fill:none;stroke:#EB5939;}
</style>
<path class="st0" d="M223.4,375.2c-0.1-0.9-0.5-1.6-1.2-2.2c-0.6-0.6-1.5-0.9-2.3-0.9h-10.8c-0.1,0-0.2,0-0.3,0s-0.2,0-0.3,0
	c-56.9,5.1-113.8,10.1-170.7,15.2c-1.6,0.1-2.9-1.1-3-2.6c-0.1-4.2-0.1-8.4-0.1-12.6V257.9c0-4.2,0-8.4,0.1-12.6
	c0-1.6,1.4-2.8,3-2.6c56.9,5.1,113.8,10.1,170.7,15.2c0.1,0,0.2,0,0.3,0s0.2,0,0.3,0h10.8c0.9,0,1.7-0.3,2.3-0.9s1.1-1.4,1.2-2.2
	c0.8-6.3,3.8-12,8.5-16.2s10.8-6.5,17.1-6.5h2.8c1.9,0,3.6-1,4.5-2.6c0.9-1.6,0.9-3.6,0-5.2c-0.9-1.6-2.6-2.6-4.5-2.6
	c-19.2-0.1-38.5,1.1-57.6,3.7c-1.5,0.2-2.9-0.9-3-2.4l-9.7-172.5c-0.1-1.6,1.1-3,2.7-3.2c21.4-2.4,43-3.6,64.6-3.6h224.7
	c21.6,0,43.2,1.2,64.6,3.6c1.6,0.2,2.8,1.6,2.7,3.2L531.1,223c-0.1,1.5-1.5,2.6-3,2.4c-19.1-2.6-38.3-3.8-57.6-3.7
	c-1.9,0-3.6,1-4.5,2.6s-0.9,3.6,0,5.2c0.9,1.6,2.7,2.6,4.5,2.6h2.8c6.3,0,12.4,2.3,17.1,6.5s7.8,10,8.5,16.2
	c0.1,0.9,0.5,1.6,1.2,2.2c0.6,0.6,1.5,0.9,2.4,0.9h10.7c0.1,0,0.2,0,0.3,0s0.2,0,0.3,0c56.9-5.1,113.8-10.1,170.7-15.2
	c1.6-0.1,2.9,1.1,3,2.6c0.1,4.2,0.1,8.4,0.1,12.6V372c0,4.2,0,8.4-0.1,12.6c0,1.6-1.4,2.8-3,2.6c-56.9-5.1-113.8-10.1-170.7-15.2
	c-0.1,0-0.2,0-0.3,0s-0.2,0-0.3,0H503c-0.9,0-1.7,0.3-2.4,0.9c-0.6,0.6-1.1,1.4-1.2,2.2c-0.8,6.3-3.8,12-8.5,16.2
	s-10.8,6.5-17.1,6.5H471c-1.9,0-3.6,1-4.5,2.6s-0.9,3.6,0,5.2s2.6,2.6,4.5,2.6c19.2,0.1,38.5-1.1,57.6-3.7c1.5-0.2,2.9,0.9,3,2.4
	l9.7,172.5c0.1,1.6-1.1,3-2.7,3.2c-21.4,2.4-43.1,3.6-64.6,3.6H249c-21.6,0-43.2-1.2-64.6-3.6c-1.6-0.2-2.8-1.6-2.7-3.2l9.7-172.5
	c0.1-1.5,1.5-2.6,3-2.4c19.1,2.6,38.3,3.8,57.6,3.7c1.9,0,3.6-1,4.5-2.6s0.9-3.6,0-5.2s-2.7-2.6-4.5-2.6h-3
	c-6.3,0-12.4-2.3-17.1-6.5C227.2,387.2,224.1,381.4,223.4,375.2L223.4,375.2z"/>
</svg>
