<?xml version="1.0" encoding="utf-8"?>
<!-- Generator: Adobe Illustrator 19.2.1, SVG Export Plug-In . SVG Version: 6.00 Build 0)  -->
<svg version="1.1" xmlns="http://www.w3.org/2000/svg" xmlns:xlink="http://www.w3.org/1999/xlink" x="0px" y="0px"
	 viewBox="0 0 1077.2 1260" style="enable-background:new 0 0 1077.2 1260;" xml:space="preserve">
<style type="text/css">
	.st0{fill:none;stroke:#E30613;stroke-miterlimit:10;}
	.st1{fill:none;stroke:#000000;stroke-miterlimit:10;}
</style>
<g id="cut">
	<path class="st0" d="M1048,631.6c0-77.1-67.9-139.6-151.7-139.6c-107,0-129.9,114.8-245.7,114.8c-6.1,0-11.1,5-11.1,11.1
		c0,3,1.2,5.8,3.1,7.8l0,0c31.9,38,108.8,145.5,253.7,145.5C980.5,771.2,1048,708.7,1048,631.6z"/>
	<path class="st0" d="M1048,316.6c0-77.1-67.9-139.6-151.7-139.6c-107,0-129.9,114.8-245.7,114.8c-6.1,0-11.1,5-11.1,11.1
		c0,3,1.2,5.8,3.1,7.8l0,0c31.9,38,108.8,145.5,253.7,145.5C980.5,456.2,1048,393.7,1048,316.6z"/>
	<path class="st0" d="M896.4,1086.1c84.1,0,151.7-62.5,151.7-139.6c0-77.1-67.9-139.6-151.7-139.6c-107,0-129.9,114.8-245.7,114.8
		c-6.1,0-11.1,5-11.1,11.1c0,3,1.2,5.8,3.1,7.8l0,0C674.6,978.6,751.5,1086.1,896.4,1086.1z"/>
	<path class="st0" d="M1048,1.7c0-77.1-67.9-139.6-151.7-139.6c-107,0-129.9,114.8-245.7,114.8c-6.1,0-11.1,5-11.1,11.1
		c0,3,1.2,5.7,3.1,7.8l0,0c31.9,38,108.8,145.5,253.7,145.5C980.5,141.3,1048,78.8,1048,1.7z"/>
	<path class="st0" d="M296.1,780.7L296.1,780.7c31.8,38,108.8,145.5,253.7,145.5c84.1,0,151.7-62.5,151.7-139.6
		c0-77.1-67.9-139.6-151.7-139.6c-107,0-129.9,114.8-245.7,114.8c-6.1,0-11.1,5-11.1,11.1C292.9,776,294.1,778.7,296.1,780.7z"/>
	<path class="st0" d="M296.1,465.8L296.1,465.8c31.8,38,108.8,145.5,253.7,145.5c84.1,0,151.7-62.5,151.7-139.6
		c0-77.1-67.9-139.6-151.7-139.6c-107,0-129.9,114.8-245.7,114.8c-6.1,0-11.1,5-11.1,11.1C292.9,461,294.1,463.8,296.1,465.8z"/>
	<path class="st0" d="M292.9,1087.9c0,3,1.2,5.8,3.1,7.8l0,0c31.9,38,108.8,145.5,253.7,145.5c84.1,0,151.7-62.5,151.7-139.6
		c0-77.1-67.9-139.6-151.7-139.6c-107,0-129.9,114.8-245.7,114.8C297.9,1076.8,292.9,1081.7,292.9,1087.9z"/>
	<path class="st0" d="M549.7,17.1C442.7,17.1,419.9,132,304,132c-6.1,0-11.1,5-11.1,11.1c0,3,1.2,5.8,3.1,7.8l0,0
		c31.9,38,108.8,145.5,253.7,145.5c84.1,0,151.7-62.5,151.7-139.6C701.4,79.6,633.5,17.1,549.7,17.1z"/>
	<path class="st0" d="M29.1,959.6c0,77.1,67.9,139.6,151.7,139.6c107,0,129.9-114.8,245.7-114.8c6.1,0,11.1-5,11.1-11.1
		c0-3-1.2-5.8-3.1-7.8l0,0C402.6,927.5,325.6,820,180.8,820C96.6,820,29.1,882.5,29.1,959.6z"/>
	<path class="st0" d="M29.1,644.7c0,77.1,67.9,139.6,151.7,139.6c107,0,129.9-114.8,245.7-114.8c6.1,0,11.1-5,11.1-11.1
		c0-3-1.2-5.8-3.1-7.8l0,0c-31.9-38-108.8-145.5-253.7-145.5C96.6,505.1,29.1,567.6,29.1,644.7z"/>
	<path class="st0" d="M29.1,329.8c0,77.1,67.9,139.6,151.7,139.6c107,0,129.9-114.8,245.7-114.8c6.1,0,11.1-5,11.1-11.1
		c0-3-1.2-5.8-3.1-7.8l0,0c-31.9-38-108.8-145.5-253.7-145.5C96.6,190.2,29.1,252.7,29.1,329.8z"/>
	<path class="st0" d="M437.6,28.5c0-3-1.2-5.8-3.1-7.8l0,0c-31.9-38-108.8-145.5-253.7-145.5c-84.1,0-151.7,62.5-151.7,139.6
		C29.1,92,97,154.5,180.8,154.5c107,0,129.9-114.8,245.7-114.8C432.6,39.6,437.6,34.7,437.6,28.5z"/>
</g>
<g id="Layer_2">
	<path class="st1" d="M183.7-142.4c58.8,0.2,115.7,20.2,176,66.8c54.8,42.4,96,72.9,188.3,74.7c53.3,1,69.7-18.2,101.1-35
		c71-38,153-120,252.2-120c11.7,0,33.3,0,33.3,0h139.9l2.8,1260H934.4c0,0-21.6,0-33.3,0c-99.2,0-181.2,82-252.2,120
		c-31.4,16.8-47.8,36-101.1,35c-92.2-1.7-133.4-32.2-188.3-74.7c-60.3-46.7-117.2-66.6-176-66.8c-9,0-17.6-0.1-25.8-0.1H0v-1260
		h157.9C166.1-142.5,174.7-142.4,183.7-142.4z"/>
</g>
</svg>
