<?xml version="1.0" encoding="utf-8"?>
<!-- Generator: Adobe Illustrator 19.2.1, SVG Export Plug-In . SVG Version: 6.00 Build 0)  -->
<svg version="1.1" id="Слой_1" xmlns="http://www.w3.org/2000/svg" xmlns:xlink="http://www.w3.org/1999/xlink" x="0px" y="0px"
	 viewBox="0 0 1162.2 1260" style="enable-background:new 0 0 1162.2 1260;" xml:space="preserve">
<style type="text/css">
	.st0{fill:none;stroke:#E41D13;stroke-width:0.5669;stroke-linecap:round;stroke-linejoin:round;stroke-miterlimit:22.9256;}
</style>
<path class="st0" d="M1280.5,526.5c0.1-0.3,0.2-0.5,0.2-0.8c0-1.3-0.7-2.4-1.9-2.8l0,0c-204-68.4-415.3-106.7-627.5-114.9
	c-273-10.5-547.4,28.8-809.4,118l0,0c-1.1,0.4-1.9,1.4-2,2.6c0,0.3,0,0.6,0.1,0.9l0,0l0,0.1c0,0,0,0.1,0,0.1l84.2,246.4l0,0
	c0.4,1.1,1.4,1.9,2.6,2c0.4,0,0.8-0.1,1.1-0.2l0,0c204.5-69.6,419-105.2,635.1-105.4c26,0,52,0.5,77.9,1.5
	c187.9,7.2,374,41.2,552.6,101.1l0,0c0,0,0,0,0,0c0.3,0.1,0.6,0.2,0.9,0.2c1.3,0,2.4-0.7,2.8-1.9l0,0l0-0.1c0,0,0,0,0,0c0,0,0,0,0,0
	L1280.5,526.5L1280.5,526.5z"/>
</svg>
