<?xml version="1.0" encoding="utf-8"?>
<!-- Generator: Adobe Illustrator 19.2.1, SVG Export Plug-In . SVG Version: 6.00 Build 0)  -->
<svg version="1.1" xmlns="http://www.w3.org/2000/svg" xmlns:xlink="http://www.w3.org/1999/xlink" x="0px" y="0px"
	 viewBox="0 0 1133.9 1260" style="enable-background:new 0 0 1133.9 1260;" xml:space="preserve">
<style type="text/css">
	.st0{fill:none;stroke:#E41D13;stroke-width:0.5669;stroke-linecap:round;stroke-linejoin:round;stroke-miterlimit:22.9256;}
	.st1{fill:none;stroke:#009FE3;stroke-width:0.5669;stroke-linecap:round;stroke-linejoin:round;stroke-miterlimit:22.9256;}
</style>
<g id="layout">
	<path class="st0" d="M430.5-158.2c-0.2-0.2-0.5-0.3-0.7-0.4c-1.2-0.4-2.5,0.1-3.2,1.1l0,0C307.7,21.8,216,216,153.2,418.9
		c-80.8,261-113.8,536.2-95.5,812.4l0,0c0.1,1.2,0.8,2.2,2,2.6c0.3,0.1,0.6,0.1,0.9,0.1l0,0l0.1,0c0,0,0.1,0,0.1,0l259.8-17.6l0,0
		c1.2-0.1,2.2-0.8,2.6-2c0.1-0.4,0.2-0.8,0.1-1.2l0,0c-14.3-215.5,6.9-432,62.6-640.7c6.7-25.1,13.9-50.1,21.6-74.9
		C463.1,318,544.2,147.1,648.2-9.9l0,0c0,0,0,0,0,0c0.2-0.2,0.3-0.5,0.4-0.8c0.4-1.2-0.1-2.5-1.1-3.2l0,0l-0.1,0c0,0,0,0,0,0
		c0,0,0,0,0,0L430.5-158.2L430.5-158.2z"/>
	<path class="st0" d="M885.5-268.9c-0.2-0.2-0.4-0.3-0.7-0.5c-1.2-0.5-2.5-0.2-3.3,0.7l0,0C741.7-105.1,627,76.5,540,270.1
		c-112,249.2-178.3,518.3-193.8,794.7l0,0c-0.1,1.2,0.5,2.3,1.7,2.8c0.3,0.1,0.6,0.2,0.9,0.2l0,0l0.1,0c0,0,0.1,0,0.1,0l260,14.2
		l0,0c1.2,0.1,2.3-0.5,2.8-1.7c0.2-0.4,0.2-0.8,0.2-1.1l0,0c12.1-215.7,59.5-427.9,140.2-628.3c9.7-24.1,19.9-48,30.6-71.7
		C859.9,207.8,961.1,48,1083.5-95.2l0,0c0,0,0,0,0,0c0.2-0.2,0.4-0.5,0.5-0.7c0.5-1.2,0.2-2.5-0.7-3.3l0,0l0,0c0,0,0,0,0,0
		c0,0,0,0,0,0L885.5-268.9L885.5-268.9z"/>
</g>
<g id="area">
	<path class="st1" d="M1133.9-281.9H876.1v3.6c-1.9,0.6-3.7,1.7-5,3.3l-0.1,0.1l-0.1,0.1c-66.8,79-128,162.3-183.2,249.5h-38.1v2.6
		L435.2-165.3c-0.9-0.6-1.9-1.1-3-1.4c-1.1-0.3-2.2-0.5-3.4-0.5c-3.7,0-7.2,1.8-9.3,4.9l-0.1,0.1l0,0.1
		c-35,52.7-67.6,106.8-98,162.2H0v1260h321.5c30.3-55.3,63-109.4,98-162.2l0-0.1l0.1-0.1c2.1-3.1,5.6-4.9,9.3-4.9
		c1.1,0,2.3,0.2,3.4,0.5c1,0.3,2,0.8,3,1.4l214.4,142.5v-2.6h38.1c55.2-87.1,116.3-170.5,183.2-249.5l0.1-0.1l0.1-0.1
		c1.4-1.5,3.1-2.7,5-3.3v-3.6l257.8,0L1133.9-281.9z"/>
</g>
</svg>
