<?xml version="1.0" encoding="utf-8"?>
<!-- Generator: Adobe Illustrator 19.2.1, SVG Export Plug-In . SVG Version: 6.00 Build 0)  -->
<svg version="1.1" xmlns="http://www.w3.org/2000/svg" xmlns:xlink="http://www.w3.org/1999/xlink" x="0px" y="0px"
	 viewBox="0 0 1105.5 1260" style="enable-background:new 0 0 1105.5 1260;" xml:space="preserve">
<style type="text/css">
	.st0{fill:none;stroke:#E62E2D;stroke-width:0.2835;stroke-miterlimit:10;}
	.st1{fill:none;stroke:#009FE3;stroke-width:0.2835;stroke-miterlimit:10;}
</style>
<g id="layout">
	<path class="st0" d="M552.8,906.2c-155.8,0-308.7,12.8-457.5,37.5c-15.1,2.5-30.2,5.1-45.2,7.9c-7.6,1.4-15.1,2.8-22.6,4.2
		c-1.5,0.3-2.6,1.8-2.3,3.3l4.1,21.4L37,1020l30.1,155.2l8.5,44.1l4.9,25.5c0.3,1.5,1.8,2.5,3.3,2.2c12.9-2.5,25.9-4.8,38.9-7.1
		c12.4-2.2,24.8-4.2,37.3-6.2c127.9-20.3,259.1-30.9,392.7-30.9c139.7,0,276.7,11.5,410.1,33.7c12.1,2,24.1,4.1,36.1,6.3
		c7.6,1.4,15.1,2.8,22.6,4.2c1.5,0.3,3-0.7,3.3-2.2l5.4-27.7l5.6-28.9l29.4-151.7l7.6-39.1l7.4-38.2c0.3-1.5-0.7-3-2.3-3.3
		c-8.4-1.6-16.7-3.2-25.1-4.7c-14.2-2.6-28.5-5.1-42.7-7.4C861.4,919,708.6,906.2,552.8,906.2z"/>
	<path class="st0" d="M552.8,591.2c-155.8,0-308.7,12.8-457.5,37.5c-15.1,2.5-30.2,5.1-45.2,7.9c-7.6,1.4-15.1,2.8-22.6,4.2
		c-1.5,0.3-2.6,1.8-2.3,3.3l4.1,21.4L37,705l30.1,155.2l8.5,44.1l4.9,25.5c0.3,1.5,1.8,2.5,3.3,2.2c12.9-2.5,25.9-4.8,38.9-7.1
		c12.4-2.2,24.8-4.2,37.3-6.2c127.9-20.3,259.1-30.9,392.7-30.9c139.7,0,276.7,11.5,410.1,33.7c12.1,2,24.1,4.1,36.1,6.3
		c7.6,1.4,15.1,2.8,22.6,4.2c1.5,0.3,3-0.7,3.3-2.2l5.4-27.7l5.6-28.9l29.4-151.7l7.6-39.1l7.4-38.2c0.3-1.5-0.7-3-2.3-3.3
		c-8.4-1.6-16.7-3.2-25.1-4.7c-14.2-2.6-28.5-5.1-42.7-7.4C861.4,604,708.6,591.2,552.8,591.2z"/>
	<path class="st0" d="M552.8,276.2c-155.8,0-308.7,12.8-457.5,37.5c-15.1,2.5-30.2,5.1-45.2,7.9c-7.6,1.4-15.1,2.8-22.6,4.2
		c-1.5,0.3-2.6,1.8-2.3,3.3l4.1,21.4L37,390l30.1,155.2l8.5,44.1l4.9,25.5c0.3,1.5,1.8,2.5,3.3,2.2c12.9-2.5,25.9-4.8,38.9-7.1
		c12.4-2.2,24.8-4.2,37.3-6.2c127.9-20.3,259.1-30.9,392.7-30.9c139.7,0,276.7,11.5,410.1,33.7c12.1,2,24.1,4.1,36.1,6.3
		c7.6,1.4,15.1,2.8,22.6,4.2c1.5,0.3,3-0.7,3.3-2.2l5.4-27.7l5.6-28.9l29.4-151.7l7.6-39.1l7.4-38.2c0.3-1.5-0.7-3-2.3-3.3
		c-8.4-1.6-16.7-3.2-25.1-4.7c-14.2-2.6-28.5-5.1-42.7-7.4C861.4,289,708.6,276.2,552.8,276.2z"/>
	<path class="st0" d="M552.8-38.8C396.9-38.8,244.1-26,95.3-1.3C80.2,1.2,65.1,3.8,50.1,6.6C42.5,8,35,9.4,27.5,10.8
		c-1.5,0.3-2.6,1.8-2.3,3.3l4.1,21.4L37,75l30.1,155.2l8.5,44.1l4.9,25.5c0.3,1.5,1.8,2.5,3.3,2.2c12.9-2.5,25.9-4.8,38.9-7.1
		c12.4-2.2,24.8-4.2,37.3-6.2c127.9-20.3,259.1-30.9,392.7-30.9c139.7,0,276.7,11.5,410.1,33.7c12.1,2,24.1,4.1,36.1,6.3
		c7.6,1.4,15.1,2.8,22.6,4.2c1.5,0.3,3-0.7,3.3-2.2l5.4-27.7l5.6-28.9l29.4-151.7l7.6-39.1l7.4-38.2c0.3-1.5-0.7-3-2.3-3.3
		c-8.4-1.6-16.7-3.2-25.1-4.7c-14.2-2.6-28.5-5.1-42.7-7.4C861.4-26,708.6-38.8,552.8-38.8z"/>
</g>
<g id="area">
	<path class="st1" d="M1060,0c-1.8-0.3-3.6-0.7-5.4-1c-14.1-2.6-28.6-5.1-42.9-7.4C861.1-33.4,706.7-46,552.8-46
		c-153.9,0-308.3,12.7-459,37.6C78.7-5.9,63.4-3.3,48.4-0.5c-1,0.2-1.9,0.3-2.8,0.5H0v1260h45.6c0.9-0.2,1.9-0.4,2.8-0.5
		c15-2.7,30.3-5.4,45.3-7.9c150.7-25,305.1-37.6,459-37.6c153.9,0,308.3,12.7,458.9,37.6c14.3,2.4,28.8,4.9,42.9,7.4
		c1.8,0.3,3.6,0.7,5.4,1h45.5V0H1060z"/>
</g>
</svg>
