<?xml version="1.0" encoding="utf-8"?>
<!-- Generator: Adobe Illustrator 19.2.1, SVG Export Plug-In . SVG Version: 6.00 Build 0)  -->
<svg version="1.1" id="cut" xmlns="http://www.w3.org/2000/svg" xmlns:xlink="http://www.w3.org/1999/xlink" x="0px" y="0px"
	 viewBox="0 0 1105.5 1260" style="enable-background:new 0 0 1105.5 1260;" xml:space="preserve">
<style type="text/css">
	.st0{fill:none;stroke:#E62E2D;stroke-width:0.2835;stroke-miterlimit:10;}
</style>
<path class="st0" d="M552.8,276.2c-155.8,0-308.7,12.8-457.5,37.5c-15.1,2.5-30.2,5.1-45.2,7.9c-7.6,1.4-15.1,2.8-22.6,4.2
	c-1.5,0.3-2.6,1.8-2.3,3.3l4.1,21.4L37,390l30.1,155.2l8.5,44.1l4.9,25.5c0.3,1.5,1.8,2.5,3.3,2.2c12.9-2.5,25.9-4.8,38.9-7.1
	c12.4-2.2,24.8-4.2,37.3-6.2c127.9-20.3,259.1-30.9,392.7-30.9c139.7,0,276.7,11.5,410.1,33.7c12.1,2,24.1,4.1,36.1,6.3
	c7.6,1.4,15.1,2.8,22.6,4.2c1.5,0.3,3-0.7,3.3-2.2l5.4-27.7l5.6-28.9l29.4-151.7l7.6-39.1l7.4-38.2c0.3-1.5-0.7-3-2.3-3.3
	c-8.4-1.6-16.7-3.2-25.1-4.7c-14.2-2.6-28.5-5.1-42.7-7.4C861.4,289,708.6,276.2,552.8,276.2z"/>
</svg>
